#!OML:ASF F:\VICON\USERDATA\INSTALL\rory3\rory3.ASF
:FULLY-SPECIFIED
:DEGREES
358
root 3.22811 16.5372 -3.84777 58.2279 -38.1015 -19.2122
lowerback -9.30875 3.12436 -5.27018
upperback -16.3107 3.73021 -2.13182
thorax -12.853 2.17508 0.518059
lowerneck -13.2236 9.78543 6.74017
upperneck 9.4582 11.7779 1.00408
head 5.3214 6.06975 0.274095
rclavicle -2.18663e-014 -9.54166e-015
rhumerus 144.765 -41.2977 -144.814
rradius 12.1863
rwrist 91.2129
rhand -4.00618 0.235291
rfingers 7.12502
rthumb 21.748 -28.563
lclavicle -2.18663e-014 -9.54166e-015
lhumerus 0.983324 7.20147 -8.88024
lradius 21.3783
lwrist -31.8624
lhand 0.257764 34.7548
lfingers 7.12502
lthumb 25.8372 63.0198
rfemur 184.75 -177.473 -159.555
rtibia 33.0834
rfoot 22.0748 -48.9607
rtoes 43.3236
lfemur -76.559 16.5147 -30.4772
ltibia 51.4834
lfoot -35.022 27.9789
ltoes 4.42871
359
root 3.23051 16.6434 -3.81481 59.6102 -38.0455 -20.8586
lowerback -9.62055 3.40397 -4.3415
upperback -16.5687 4.11214 -1.89183
thorax -12.9344 2.27092 0.27147
lowerneck -12.8669 9.94518 6.83499
upperneck 9.3155 12.0032 1.03376
head 5.2281 6.18459 0.268041
rclavicle -4.17448e-014 1.43125e-014
rhumerus 143.998 -42.1997 -143.632
rradius 12.3505
rwrist 90.9057
rhand -3.90401 0.124426
rfingers 7.12502
rthumb 21.8461 -28.6624
lclavicle -4.17448e-014 1.43125e-014
lhumerus 0.324067 7.17893 -9.676
lradius 21.1267
lwrist -32.2727
lhand 0.268123 34.6722
lfingers 7.12502
lthumb 25.8472 62.9358
rfemur 186.019 -178.499 -159.311
rtibia 33.6318
rfoot 21.359 -50.1697
rtoes 43.8306
lfemur -76.2307 17.0007 -28.7903
ltibia 50.6602
lfoot -34.4339 28.6836
ltoes 4.46077
360
root 3.23287 16.7564 -3.79043 61.1319 -37.8771 -22.4987
lowerback -9.93872 3.63335 -3.48138
upperback -16.7672 4.43056 -1.59851
thorax -12.9443 2.34627 0.128803
lowerneck -12.782 10.1066 6.87717
upperneck 8.94449 12.2243 1.02173
head 5.10574 6.28915 0.262358
rclavicle 7.11649e-014 1.59028e-014
rhumerus 143.241 -43.1052 -142.26
rradius 12.2065
rwrist 90.1078
rhand -3.97939 -0.401146
rfingers 7.12502
rthumb 21.7738 -29.1964
lclavicle 7.11649e-014 1.59028e-014
lhumerus -0.592386 6.69943 -10.5261
lradius 21.0541
lwrist -32.0659
lhand -0.00825908 34.6294
lfingers 7.12502
lthumb 25.5825 62.9313
rfemur 186.832 -177.331 -159.97
rtibia 34.4091
rfoot 29.9763 -46.276
rtoes 39.3748
lfemur -76.0373 17.4699 -27.1177
ltibia 49.7771
lfoot -33.8167 29.0508
ltoes 5.40035
361
root 3.23408 16.8748 -3.7687 62.368 -38.2935 -23.8195
lowerback -10.1274 3.78575 -3.38655
upperback -16.9548 4.65091 -1.2859
thorax -13.1017 2.46785 0.416888
lowerneck -12.7503 10.3069 6.58333
upperneck 8.81914 12.5321 1.17885
head 5.03929 6.4392 0.37301
rclavicle -5.60573e-014 -2.06736e-014
rhumerus 142.267 -43.336 -140.919
rradius 12.1364
rwrist 90.0547
rhand -4.10926 -0.895615
rfingers 7.12502
rthumb 21.649 -29.7053
lclavicle -5.60573e-014 -2.06736e-014
lhumerus -2.26504 5.27235 -11.4137
lradius 21.464
lwrist -31.5695
lhand -0.685272 34.4121
lfingers 7.12502
lthumb 24.9338 62.8055
rfemur 187.627 -178.55 -160.313
rtibia 35.5748
rfoot 30.9981 -46.2536
rtoes 38.4744
lfemur -75.5551 18.1965 -26.5051
ltibia 48.5603
lfoot -33.1244 28.9779
ltoes 6.68936
362
root 3.23246 16.9975 -3.73857 63.5214 -38.8208 -25.0748
lowerback -10.3141 4.03373 -3.42364
upperback -17.172 4.98958 -1.14774
thorax -13.3055 2.65199 0.581048
lowerneck -12.731 10.4574 6.64515
upperneck 8.84188 12.7241 1.1855
head 5.05096 6.53576 0.383783
rclavicle -4.17448e-014 -1.11319e-014
rhumerus 142.076 -43.1937 -140.5
rradius 12.3454
rwrist 91.146
rhand -4.13801 -0.894305
rfingers 7.12502
rthumb 21.6214 -29.7072
lclavicle -4.17448e-014 -1.11319e-014
lhumerus -2.9612 6.82741 -11.8463
lradius 20.602
lwrist -34.4604
lhand -1.72981 32.672
lfingers 7.12502
lthumb 23.9325 61.2005
rfemur 188.295 -177.561 -161.98
rtibia 36.8634
rfoot 36.1518 -42.7402
rtoes 34.8987
lfemur -75.1135 18.9254 -26.0505
ltibia 47.4141
lfoot -31.9322 29.7818
ltoes 5.41321
363
root 3.22675 17.1574 -3.71371 63.7251 -40.5918 -25.3306
lowerback -9.87608 4.12813 -5.14356
upperback -17.3038 5.09316 -1.42814
thorax -13.9375 2.90087 1.15046
lowerneck -12.4778 10.5289 6.94677
upperneck 8.55927 12.7988 1.11328
head 4.94742 6.57472 0.303401
rclavicle -1.10922e-013 5.40694e-014
rhumerus 141.998 -43.5786 -140.145
rradius 12.5665
rwrist 91.7192
rhand -3.7976 -0.318465
rfingers 7.12502
rthumb 21.9483 -29.0934
lclavicle -1.10922e-013 5.40694e-014
lhumerus -3.718 7.71326 -12.445
lradius 20.2423
lwrist -35.9058
lhand -2.50577 31.5005
lfingers 7.12502
lthumb 23.1882 60.1247
rfemur 189.202 -177.393 -164.813
rtibia 38.1772
rfoot 38.4474 -41.1923
rtoes 33.8293
lfemur -73.9785 19.2925 -26.773
ltibia 46.2151
lfoot -31.1075 30.6728
ltoes 4.23373
364
root 3.22357 17.2692 -3.68866 65.3403 -39.8993 -27.1824
lowerback -10.2991 4.38312 -3.84588
upperback -17.5767 5.44401 -1.0965
thorax -13.9254 2.93476 0.824138
lowerneck -11.9149 10.6024 7.11911
upperneck 8.10701 12.9206 1.12415
head 4.72881 6.63639 0.246703
rclavicle -4.13472e-014 3.18055e-014
rhumerus 141.958 -43.6756 -140.046
rradius 12.7865
rwrist 92.5554
rhand -3.4938 0.482113
rfingers 7.12502
rthumb 22.24 -28.2583
lclavicle -4.13472e-014 3.18055e-014
lhumerus -4.67678 7.41049 -13.1497
lradius 20.3043
lwrist -35.5696
lhand -2.53495 31.864
lfingers 7.12502
lthumb 23.1602 60.4918
rfemur 189.848 -177.465 -164.599
rtibia 39.5101
rfoot 39.4534 -40.4859
rtoes 33.4208
lfemur -73.7834 19.8339 -24.7986
ltibia 45.2446
lfoot -30.3628 31.1778
ltoes 4.62281
